<?xml version="1.0" encoding="UTF-8" standalone="no"?>
<!DOCTYPE svg PUBLIC "-//W3C//DTD SVG 1.1//EN"
 "http://www.w3.org/Graphics/SVG/1.1/DTD/svg11.dtd">
<!-- Generated by graphviz version 2.38.0 (20140413.2041)
 -->
<!-- Title: config Pages: 1 -->
<svg width="269pt" height="387pt"
 viewBox="0.00 0.00 268.86 387.00" xmlns="http://www.w3.org/2000/svg" xmlns:xlink="http://www.w3.org/1999/xlink">
<g id="graph0" class="graph" transform="scale(1 1) rotate(0) translate(4 383)">
<title>config</title>
<polygon fill="white" stroke="none" points="-4,4 -4,-383 264.858,-383 264.858,4 -4,4"/>
<!-- ObsConfig -->
<g id="node1" class="node"><title>ObsConfig</title>
<polygon fill="#1874cd" stroke="black" points="119.613,-342.5 119.613,-378.5 182.859,-378.5 182.859,-342.5 119.613,-342.5"/>
<text text-anchor="middle" x="151.236" y="-357.5" font-family="Helvetica Neue, Helvetica, Arial, sans-serif" font-size="10.00" fill="white">ObsConfig</text>
</g>
<!-- SubarrayConfig -->
<g id="node2" class="node"><title>SubarrayConfig</title>
<polygon fill="#1874cd" stroke="black" points="45.4951,-259.5 45.4951,-295.5 130.978,-295.5 130.978,-259.5 45.4951,-259.5"/>
<text text-anchor="middle" x="88.2363" y="-274.5" font-family="Helvetica Neue, Helvetica, Arial, sans-serif" font-size="10.00" fill="white">SubarrayConfig</text>
</g>
<!-- ObsConfig&#45;&gt;SubarrayConfig -->
<g id="edge1" class="edge"><title>ObsConfig&#45;&gt;SubarrayConfig</title>
<path fill="none" stroke="black" d="M131.472,-334.088C121.738,-321.574 110.26,-306.817 101.578,-295.653"/>
<polygon fill="black" stroke="black" points="128.973,-336.577 137.876,-342.322 134.499,-332.28 128.973,-336.577"/>
<text text-anchor="middle" x="138.135" y="-316" font-family="Helvetica Neue, Helvetica, Arial, sans-serif" font-size="10.00">run_id</text>
</g>
<!-- ArrayTriggerConfig -->
<g id="node3" class="node"><title>ArrayTriggerConfig</title>
<polygon fill="#8b6914" stroke="black" points="150.183,-259.5 150.183,-295.5 250.29,-295.5 250.29,-259.5 150.183,-259.5"/>
<text text-anchor="middle" x="200.236" y="-274.5" font-family="Helvetica Neue, Helvetica, Arial, sans-serif" font-size="10.00" fill="white">ArrayTriggerConfig</text>
</g>
<!-- ObsConfig&#45;&gt;ArrayTriggerConfig -->
<g id="edge2" class="edge"><title>ObsConfig&#45;&gt;ArrayTriggerConfig</title>
<path fill="none" stroke="black" d="M166.828,-333.727C174.351,-321.29 183.171,-306.709 189.86,-295.653"/>
<polygon fill="black" stroke="black" points="163.809,-331.954 161.628,-342.322 169.799,-335.577 163.809,-331.954"/>
<text text-anchor="middle" x="198.694" y="-316" font-family="Helvetica Neue, Helvetica, Arial, sans-serif" font-size="10.00">run_type</text>
</g>
<!-- ArrayConfig -->
<g id="node5" class="node"><title>ArrayConfig</title>
<polygon fill="none" stroke="black" points="52.8374,-166.5 52.8374,-202.5 121.635,-202.5 121.635,-166.5 52.8374,-166.5"/>
<text text-anchor="middle" x="87.2363" y="-181.5" font-family="Helvetica Neue, Helvetica, Arial, sans-serif" font-size="10.00">ArrayConfig</text>
</g>
<!-- SubarrayConfig&#45;&gt;ArrayConfig -->
<g id="edge4" class="edge"><title>SubarrayConfig&#45;&gt;ArrayConfig</title>
<path fill="none" stroke="black" d="M87.9347,-249.049C87.7684,-233.919 87.5672,-215.611 87.4236,-202.54"/>
<polygon fill="black" stroke="black" points="84.4385,-249.423 88.0482,-259.384 91.438,-249.346 84.4385,-249.423"/>
<text text-anchor="middle" x="104.354" y="-233" font-family="Helvetica Neue, Helvetica, Arial, sans-serif" font-size="10.00">site_id,</text>
<text text-anchor="middle" x="104.354" y="-223" font-family="Helvetica Neue, Helvetica, Arial, sans-serif" font-size="10.00">version</text>
</g>
<!-- TelescopeTriggerConfig -->
<g id="node4" class="node"><title>TelescopeTriggerConfig</title>
<polygon fill="#8b6914" stroke="black" points="139.614,-166.5 139.614,-202.5 260.858,-202.5 260.858,-166.5 139.614,-166.5"/>
<text text-anchor="middle" x="200.236" y="-181.5" font-family="Helvetica Neue, Helvetica, Arial, sans-serif" font-size="10.00" fill="white">TelescopeTriggerConfig</text>
</g>
<!-- ArrayTriggerConfig&#45;&gt;TelescopeTriggerConfig -->
<g id="edge3" class="edge"><title>ArrayTriggerConfig&#45;&gt;TelescopeTriggerConfig</title>
<path fill="none" stroke="black" d="M200.236,-249.049C200.236,-233.919 200.236,-215.611 200.236,-202.54"/>
<polygon fill="black" stroke="black" points="196.736,-249.384 200.236,-259.384 203.736,-249.384 196.736,-249.384"/>
<text text-anchor="middle" x="221.083" y="-233" font-family="Helvetica Neue, Helvetica, Arial, sans-serif" font-size="10.00">run_type,</text>
<text text-anchor="middle" x="221.083" y="-223" font-family="Helvetica Neue, Helvetica, Arial, sans-serif" font-size="10.00">tel_id</text>
</g>
<!-- TelescopeConfig -->
<g id="node6" class="node"><title>TelescopeConfig</title>
<polygon fill="none" stroke="black" points="42.2686,-83.5 42.2686,-119.5 132.204,-119.5 132.204,-83.5 42.2686,-83.5"/>
<text text-anchor="middle" x="87.2363" y="-98.5" font-family="Helvetica Neue, Helvetica, Arial, sans-serif" font-size="10.00">TelescopeConfig</text>
</g>
<!-- ArrayConfig&#45;&gt;TelescopeConfig -->
<g id="edge5" class="edge"><title>ArrayConfig&#45;&gt;TelescopeConfig</title>
<path fill="none" stroke="black" d="M87.2363,-156.268C87.2363,-144.163 87.2363,-130.28 87.2363,-119.653"/>
<polygon fill="black" stroke="black" points="83.7364,-156.322 87.2363,-166.322 90.7364,-156.322 83.7364,-156.322"/>
<text text-anchor="middle" x="99.1895" y="-140" font-family="Helvetica Neue, Helvetica, Arial, sans-serif" font-size="10.00">tel_id</text>
</g>
<!-- CameraConfig -->
<g id="node7" class="node"><title>CameraConfig</title>
<polygon fill="none" stroke="black" points="0,-0.5 0,-36.5 80.4727,-36.5 80.4727,-0.5 0,-0.5"/>
<text text-anchor="middle" x="40.2363" y="-15.5" font-family="Helvetica Neue, Helvetica, Arial, sans-serif" font-size="10.00">CameraConfig</text>
</g>
<!-- TelescopeConfig&#45;&gt;CameraConfig -->
<g id="edge6" class="edge"><title>TelescopeConfig&#45;&gt;CameraConfig</title>
<path fill="none" stroke="black" d="M72.0708,-74.3637C64.9011,-62.0074 56.5424,-47.6019 50.1895,-36.6533"/>
<polygon fill="black" stroke="black" points="69.2227,-76.4292 77.2688,-83.322 75.2773,-72.916 69.2227,-76.4292"/>
<text text-anchor="middle" x="79.1895" y="-57" font-family="Helvetica Neue, Helvetica, Arial, sans-serif" font-size="10.00">tel_id</text>
</g>
<!-- OpticsConfig -->
<g id="node8" class="node"><title>OpticsConfig</title>
<polygon fill="none" stroke="black" points="98.6133,-0.5 98.6133,-36.5 171.859,-36.5 171.859,-0.5 98.6133,-0.5"/>
<text text-anchor="middle" x="135.236" y="-15.5" font-family="Helvetica Neue, Helvetica, Arial, sans-serif" font-size="10.00">OpticsConfig</text>
</g>
<!-- TelescopeConfig&#45;&gt;OpticsConfig -->
<g id="edge7" class="edge"><title>TelescopeConfig&#45;&gt;OpticsConfig</title>
<path fill="none" stroke="black" d="M102.725,-74.3637C110.047,-62.0074 118.583,-47.6019 125.071,-36.6533"/>
<polygon fill="black" stroke="black" points="99.5029,-72.9347 97.4159,-83.322 105.525,-76.5034 99.5029,-72.9347"/>
<text text-anchor="middle" x="126.189" y="-57" font-family="Helvetica Neue, Helvetica, Arial, sans-serif" font-size="10.00">tel_id</text>
</g>
</g>
</svg>
