<?xml version="1.0" encoding="UTF-8" standalone="no"?>
<!DOCTYPE svg PUBLIC "-//W3C//DTD SVG 1.1//EN"
 "http://www.w3.org/Graphics/SVG/1.1/DTD/svg11.dtd">
<!-- Generated by graphviz version 2.38.0 (20140413.2041)
 -->
<!-- Title: Core Pages: 1 -->
<svg width="294pt" height="95pt"
 viewBox="0.00 0.00 294.00 95.00" xmlns="http://www.w3.org/2000/svg" xmlns:xlink="http://www.w3.org/1999/xlink">
<g id="graph0" class="graph" transform="scale(1 1) rotate(0) translate(4 91)">
<title>Core</title>
<polygon fill="white" stroke="none" points="-4,4 -4,-91 290,-91 290,4 -4,4"/>
<g id="clust1" class="cluster"><title>cluster_Tool_0</title>
<polygon fill="none" stroke="black" points="8,-8 8,-79 278,-79 278,-8 8,-8"/>
<text text-anchor="middle" x="143" y="-67" font-family="Helvetica Neue, Helvetica, Arial, sans-serif" font-size="10.00">Tool (configuration/command&#45;line, logging, provenance)</text>
</g>
<!-- Container_1 -->
<g id="node1" class="node"><title>Container_1</title>
<ellipse fill="none" stroke="black" cx="143" cy="-34.5" rx="40.887" ry="18"/>
<text text-anchor="middle" x="143" y="-31.5" font-family="Helvetica Neue, Helvetica, Arial, sans-serif" font-size="10.00">Container_1</text>
</g>
<!-- Component_2 -->
<g id="node3" class="node"><title>Component_2</title>
<polygon fill="#1874cd" stroke="black" points="202.15,-16.5 202.15,-52.5 269.85,-52.5 269.85,-16.5 202.15,-16.5"/>
<text text-anchor="middle" x="236" y="-31.5" font-family="Helvetica Neue, Helvetica, Arial, sans-serif" font-size="10.00" fill="white">Component</text>
</g>
<!-- Container_1&#45;&gt;Component_2 -->
<g id="edge2" class="edge"><title>Container_1&#45;&gt;Component_2</title>
<path fill="none" stroke="black" d="M184.051,-34.5C186.655,-34.5 189.259,-34.5 191.863,-34.5"/>
<polygon fill="black" stroke="black" points="191.908,-38.0001 201.908,-34.5 191.908,-31.0001 191.908,-38.0001"/>
</g>
<!-- Component_1 -->
<g id="node2" class="node"><title>Component_1</title>
<polygon fill="#1874cd" stroke="black" points="16.1504,-16.5 16.1504,-52.5 83.8496,-52.5 83.8496,-16.5 16.1504,-16.5"/>
<text text-anchor="middle" x="50" y="-31.5" font-family="Helvetica Neue, Helvetica, Arial, sans-serif" font-size="10.00" fill="white">Component</text>
</g>
<!-- Component_1&#45;&gt;Container_1 -->
<g id="edge1" class="edge"><title>Component_1&#45;&gt;Container_1</title>
<path fill="none" stroke="black" d="M84.1484,-34.5C86.7634,-34.5 89.3784,-34.5 91.9934,-34.5"/>
<polygon fill="black" stroke="black" points="92.0798,-38.0001 102.08,-34.5 92.0797,-31.0001 92.0798,-38.0001"/>
</g>
</g>
</svg>
