<?xml version="1.0" encoding="UTF-8" standalone="no"?>
<!DOCTYPE svg PUBLIC "-//W3C//DTD SVG 1.1//EN"
 "http://www.w3.org/Graphics/SVG/1.1/DTD/svg11.dtd">
<!-- Generated by graphviz version 2.38.0 (20140413.2041)
 -->
<!-- Title: Core Pages: 1 -->
<svg width="296pt" height="96pt"
 viewBox="0.00 0.00 296.00 96.00" xmlns="http://www.w3.org/2000/svg" xmlns:xlink="http://www.w3.org/1999/xlink">
<g id="graph0" class="graph" transform="scale(1 1) rotate(0) translate(4 92)">
<title>Core</title>
<polygon fill="white" stroke="none" points="-4,4 -4,-92 292,-92 292,4 -4,4"/>
<g id="clust1" class="cluster"><title>cluster_Tool_0</title>
<polygon fill="none" stroke="black" points="8,-8 8,-80 280,-80 280,-8 8,-8"/>
<text text-anchor="middle" x="144" y="-68" font-family="Helvetica Neue, Helvetica, Arial, sans-serif" font-size="10.00">Tool (configuration/command&#45;line, logging, provenance)</text>
</g>
<!-- Container_1 -->
<g id="node1" class="node"><title>Container_1</title>
<ellipse fill="none" stroke="black" cx="144" cy="-34.5" rx="41.5911" ry="18"/>
<text text-anchor="middle" x="144" y="-32" font-family="Helvetica Neue, Helvetica, Arial, sans-serif" font-size="10.00">Container_1</text>
</g>
<!-- Component_2 -->
<g id="node3" class="node"><title>Component_2</title>
<polygon fill="#1874cd" stroke="black" points="204,-16.5 204,-52.5 272,-52.5 272,-16.5 204,-16.5"/>
<text text-anchor="middle" x="238" y="-32" font-family="Helvetica Neue, Helvetica, Arial, sans-serif" font-size="10.00" fill="white">Component</text>
</g>
<!-- Container_1&#45;&gt;Component_2 -->
<g id="edge2" class="edge"><title>Container_1&#45;&gt;Component_2</title>
<path fill="none" stroke="black" d="M185.859,-34.5C188.473,-34.5 191.087,-34.5 193.701,-34.5"/>
<polygon fill="black" stroke="black" points="193.783,-38.0001 203.783,-34.5 193.783,-31.0001 193.783,-38.0001"/>
</g>
<!-- Component_1 -->
<g id="node2" class="node"><title>Component_1</title>
<polygon fill="#1874cd" stroke="black" points="16,-16.5 16,-52.5 84,-52.5 84,-16.5 16,-16.5"/>
<text text-anchor="middle" x="50" y="-32" font-family="Helvetica Neue, Helvetica, Arial, sans-serif" font-size="10.00" fill="white">Component</text>
</g>
<!-- Component_1&#45;&gt;Container_1 -->
<g id="edge1" class="edge"><title>Component_1&#45;&gt;Container_1</title>
<path fill="none" stroke="black" d="M84.1484,-34.5C86.6471,-34.5 89.1458,-34.5 91.6445,-34.5"/>
<polygon fill="black" stroke="black" points="91.9169,-38.0001 101.917,-34.5 91.9168,-31.0001 91.9169,-38.0001"/>
</g>
</g>
</svg>
