<?xml version="1.0" encoding="UTF-8" standalone="no"?>
<!DOCTYPE svg PUBLIC "-//W3C//DTD SVG 1.1//EN"
 "http://www.w3.org/Graphics/SVG/1.1/DTD/svg11.dtd">
<!-- Generated by graphviz version 2.38.0 (20140413.2041)
 -->
<!-- Title: inheritance59eab2468f Pages: 1 -->
<svg width="576pt" height="59pt"
 viewBox="0.00 0.00 576.00 58.99" xmlns="http://www.w3.org/2000/svg" xmlns:xlink="http://www.w3.org/1999/xlink">
<g id="graph0" class="graph" transform="scale(0.737431 0.737431) rotate(0) translate(4 76)">
<title>inheritance59eab2468f</title>
<polygon fill="white" stroke="none" points="-4,4 -4,-76 777.09,-76 777.09,4 -4,4"/>
<!-- Application -->
<g id="node1" class="node"><title>Application</title>
<g id="a_node1"><a xlink:title="A singleton application with full configuration support.">
<polygon fill="none" stroke="black" stroke-width="0.5" points="683.05,-18 618.208,-18 618.208,-0 683.05,-0 683.05,-18"/>
<text text-anchor="middle" x="650.629" y="-6" font-family="Vera Sans, DejaVu Sans, Liberation Sans, Arial, Helvetica, sans" font-size="10.00">Application</text>
</a>
</g>
</g>
<!-- Tool -->
<g id="node9" class="node"><title>Tool</title>
<g id="a_node9"><a xlink:href="../../api/ctapipe.core.Tool.html#ctapipe.core.Tool" xlink:title="A base class for all executable tools (applications) that handles" target="_top">
<polygon fill="none" stroke="black" stroke-width="0.5" points="773.09,-18 719.09,-18 719.09,-0 773.09,-0 773.09,-18"/>
<text text-anchor="middle" x="746.09" y="-6" font-family="Vera Sans, DejaVu Sans, Liberation Sans, Arial, Helvetica, sans" font-size="10.00">Tool</text>
</a>
</g>
</g>
<!-- Application&#45;&gt;Tool -->
<g id="edge7" class="edge"><title>Application&#45;&gt;Tool</title>
<path fill="none" stroke="black" stroke-width="0.5" d="M683.271,-9C693.192,-9 704.129,-9 714.011,-9"/>
<polygon fill="black" stroke="black" stroke-width="0.5" points="714.071,-10.7501 719.071,-9 714.071,-7.2501 714.071,-10.7501"/>
</g>
<!-- SingletonConfigurable -->
<g id="node2" class="node"><title>SingletonConfigurable</title>
<g id="a_node2"><a xlink:title="A configurable that only allows one instance.">
<polygon fill="none" stroke="black" stroke-width="0.5" points="582.371,-18 467.563,-18 467.563,-0 582.371,-0 582.371,-18"/>
<text text-anchor="middle" x="524.967" y="-6" font-family="Vera Sans, DejaVu Sans, Liberation Sans, Arial, Helvetica, sans" font-size="10.00">SingletonConfigurable</text>
</a>
</g>
</g>
<!-- SingletonConfigurable&#45;&gt;Application -->
<g id="edge1" class="edge"><title>SingletonConfigurable&#45;&gt;Application</title>
<path fill="none" stroke="black" stroke-width="0.5" d="M582.37,-9C592.69,-9 603.212,-9 612.777,-9"/>
<polygon fill="black" stroke="black" stroke-width="0.5" points="612.984,-10.7501 617.984,-9 612.984,-7.2501 612.984,-10.7501"/>
</g>
<!-- Component -->
<g id="node3" class="node"><title>Component</title>
<g id="a_node3"><a xlink:href="../../api/ctapipe.core.Component.html#ctapipe.core.Component" xlink:title="Base class of all Components (sometimes called" target="_top">
<polygon fill="none" stroke="black" stroke-width="0.5" points="411.318,-54 343.918,-54 343.918,-36 411.318,-36 411.318,-54"/>
<text text-anchor="middle" x="377.618" y="-42" font-family="Vera Sans, DejaVu Sans, Liberation Sans, Arial, Helvetica, sans" font-size="10.00">Component</text>
</a>
</g>
</g>
<!-- Configurable -->
<g id="node4" class="node"><title>Configurable</title>
<polygon fill="none" stroke="black" stroke-width="0.5" points="287.323,-36 214.914,-36 214.914,-18 287.323,-18 287.323,-36"/>
<text text-anchor="middle" x="251.119" y="-24" font-family="Vera Sans, DejaVu Sans, Liberation Sans, Arial, Helvetica, sans" font-size="10.00">Configurable</text>
</g>
<!-- Configurable&#45;&gt;Component -->
<g id="edge2" class="edge"><title>Configurable&#45;&gt;Component</title>
<path fill="none" stroke="black" stroke-width="0.5" d="M287.462,-32.1099C303.489,-34.4271 322.462,-37.1702 338.778,-39.5291"/>
<polygon fill="black" stroke="black" stroke-width="0.5" points="338.551,-41.2644 343.75,-40.2479 339.052,-37.8004 338.551,-41.2644"/>
</g>
<!-- LoggingConfigurable -->
<g id="node8" class="node"><title>LoggingConfigurable</title>
<g id="a_node8"><a xlink:title="A parent class for Configurables that log.">
<polygon fill="none" stroke="black" stroke-width="0.5" points="431.913,-18 323.323,-18 323.323,-0 431.913,-0 431.913,-18"/>
<text text-anchor="middle" x="377.618" y="-6" font-family="Vera Sans, DejaVu Sans, Liberation Sans, Arial, Helvetica, sans" font-size="10.00">LoggingConfigurable</text>
</a>
</g>
</g>
<!-- Configurable&#45;&gt;LoggingConfigurable -->
<g id="edge5" class="edge"><title>Configurable&#45;&gt;LoggingConfigurable</title>
<path fill="none" stroke="black" stroke-width="0.5" d="M287.462,-21.8901C296.976,-20.5145 307.529,-18.9889 317.947,-17.4826"/>
<polygon fill="black" stroke="black" stroke-width="0.5" points="318.348,-19.193 323.046,-16.7454 317.847,-15.729 318.348,-19.193"/>
</g>
<!-- HasTraits -->
<g id="node5" class="node"><title>HasTraits</title>
<polygon fill="none" stroke="black" stroke-width="0.5" points="178.977,-36 120.14,-36 120.14,-18 178.977,-18 178.977,-36"/>
<text text-anchor="middle" x="149.558" y="-24" font-family="Vera Sans, DejaVu Sans, Liberation Sans, Arial, Helvetica, sans" font-size="10.00">HasTraits</text>
</g>
<!-- HasTraits&#45;&gt;Configurable -->
<g id="edge3" class="edge"><title>HasTraits&#45;&gt;Configurable</title>
<path fill="none" stroke="black" stroke-width="0.5" d="M178.822,-27C188.406,-27 199.309,-27 209.654,-27"/>
<polygon fill="black" stroke="black" stroke-width="0.5" points="209.68,-28.7501 214.68,-27 209.68,-25.2501 209.68,-28.7501"/>
</g>
<!-- Container -->
<g id="node6" class="node"><title>Container</title>
<g id="a_node6"><a xlink:href="../../api/ctapipe.core.Container.html#ctapipe.core.Container" xlink:title="Generic class that can hold and accumulate data to be passed" target="_top">
<polygon fill="none" stroke="black" stroke-width="0.5" points="72.0353,-72 12.3143,-72 12.3143,-54 72.0353,-54 72.0353,-72"/>
<text text-anchor="middle" x="42.1748" y="-60" font-family="Vera Sans, DejaVu Sans, Liberation Sans, Arial, Helvetica, sans" font-size="10.00">Container</text>
</a>
</g>
</g>
<!-- HasDescriptors -->
<g id="node7" class="node"><title>HasDescriptors</title>
<g id="a_node7"><a xlink:title="The base class for all classes that have descriptors.">
<polygon fill="none" stroke="black" stroke-width="0.5" points="84.5251,-36 -0.175532,-36 -0.175532,-18 84.5251,-18 84.5251,-36"/>
<text text-anchor="middle" x="42.1748" y="-24" font-family="Vera Sans, DejaVu Sans, Liberation Sans, Arial, Helvetica, sans" font-size="10.00">HasDescriptors</text>
</a>
</g>
</g>
<!-- HasDescriptors&#45;&gt;HasTraits -->
<g id="edge4" class="edge"><title>HasDescriptors&#45;&gt;HasTraits</title>
<path fill="none" stroke="black" stroke-width="0.5" d="M84.5226,-27C94.7363,-27 105.547,-27 115.319,-27"/>
<polygon fill="black" stroke="black" stroke-width="0.5" points="115.326,-28.7501 120.326,-27 115.326,-25.2501 115.326,-28.7501"/>
</g>
<!-- LoggingConfigurable&#45;&gt;SingletonConfigurable -->
<g id="edge6" class="edge"><title>LoggingConfigurable&#45;&gt;SingletonConfigurable</title>
<path fill="none" stroke="black" stroke-width="0.5" d="M431.915,-9C441.942,-9 452.499,-9 462.745,-9"/>
<polygon fill="black" stroke="black" stroke-width="0.5" points="462.746,-10.7501 467.746,-9 462.745,-7.2501 462.746,-10.7501"/>
</g>
</g>
</svg>
