<?xml version="1.0" encoding="UTF-8" standalone="no"?>
<!DOCTYPE svg PUBLIC "-//W3C//DTD SVG 1.1//EN"
 "http://www.w3.org/Graphics/SVG/1.1/DTD/svg11.dtd">
<!-- Generated by graphviz version 2.38.0 (20140413.2041)
 -->
<!-- Title: inheritance59eab2468f Pages: 1 -->
<svg width="576pt" height="85pt"
 viewBox="0.00 0.00 576.00 84.90" xmlns="http://www.w3.org/2000/svg" xmlns:xlink="http://www.w3.org/1999/xlink">
<g id="graph0" class="graph" transform="scale(0.731863 0.731863) rotate(0) translate(4 112)">
<title>inheritance59eab2468f</title>
<polygon fill="white" stroke="none" points="-4,4 -4,-112 783.032,-112 783.032,4 -4,4"/>
<!-- Application -->
<g id="node1" class="node"><title>Application</title>
<g id="a_node1"><a xlink:title="A singleton application with full configuration support.">
<polygon fill="none" stroke="black" stroke-width="0.5" points="688.993,-18 624.151,-18 624.151,-0 688.993,-0 688.993,-18"/>
<text text-anchor="middle" x="656.572" y="-6" font-family="Vera Sans, DejaVu Sans, Liberation Sans, Arial, Helvetica, sans" font-size="10.00">Application</text>
</a>
</g>
</g>
<!-- Tool -->
<g id="node10" class="node"><title>Tool</title>
<g id="a_node10"><a xlink:href="../../api/ctapipe.core.Tool.html#ctapipe.core.Tool" xlink:title="A base class for all executable tools (applications) that handles" target="_top">
<polygon fill="none" stroke="black" stroke-width="0.5" points="779.032,-18 725.032,-18 725.032,-0 779.032,-0 779.032,-18"/>
<text text-anchor="middle" x="752.032" y="-6" font-family="Vera Sans, DejaVu Sans, Liberation Sans, Arial, Helvetica, sans" font-size="10.00">Tool</text>
</a>
</g>
</g>
<!-- Application&#45;&gt;Tool -->
<g id="edge8" class="edge"><title>Application&#45;&gt;Tool</title>
<path fill="none" stroke="black" stroke-width="0.5" d="M689.213,-9C699.134,-9 710.072,-9 719.953,-9"/>
<polygon fill="black" stroke="black" stroke-width="0.5" points="720.014,-10.7501 725.014,-9 720.014,-7.2501 720.014,-10.7501"/>
</g>
<!-- SingletonConfigurable -->
<g id="node2" class="node"><title>SingletonConfigurable</title>
<g id="a_node2"><a xlink:title="A configurable that only allows one instance.">
<polygon fill="none" stroke="black" stroke-width="0.5" points="588.314,-18 473.506,-18 473.506,-0 588.314,-0 588.314,-18"/>
<text text-anchor="middle" x="530.91" y="-6" font-family="Vera Sans, DejaVu Sans, Liberation Sans, Arial, Helvetica, sans" font-size="10.00">SingletonConfigurable</text>
</a>
</g>
</g>
<!-- SingletonConfigurable&#45;&gt;Application -->
<g id="edge1" class="edge"><title>SingletonConfigurable&#45;&gt;Application</title>
<path fill="none" stroke="black" stroke-width="0.5" d="M588.313,-9C598.632,-9 609.155,-9 618.719,-9"/>
<polygon fill="black" stroke="black" stroke-width="0.5" points="618.926,-10.7501 623.926,-9 618.926,-7.2501 618.926,-10.7501"/>
</g>
<!-- Component -->
<g id="node3" class="node"><title>Component</title>
<g id="a_node3"><a xlink:title="Base class of all Components (sometimes called">
<polygon fill="none" stroke="black" stroke-width="0.5" points="417.26,-54 349.861,-54 349.861,-36 417.26,-36 417.26,-54"/>
<text text-anchor="middle" x="383.561" y="-42" font-family="Vera Sans, DejaVu Sans, Liberation Sans, Arial, Helvetica, sans" font-size="10.00">Component</text>
</a>
</g>
</g>
<!-- Configurable -->
<g id="node4" class="node"><title>Configurable</title>
<polygon fill="none" stroke="black" stroke-width="0.5" points="293.266,-36 220.856,-36 220.856,-18 293.266,-18 293.266,-36"/>
<text text-anchor="middle" x="257.061" y="-24" font-family="Vera Sans, DejaVu Sans, Liberation Sans, Arial, Helvetica, sans" font-size="10.00">Configurable</text>
</g>
<!-- Configurable&#45;&gt;Component -->
<g id="edge2" class="edge"><title>Configurable&#45;&gt;Component</title>
<path fill="none" stroke="black" stroke-width="0.5" d="M293.405,-32.1099C309.431,-34.4271 328.405,-37.1702 344.72,-39.5291"/>
<polygon fill="black" stroke="black" stroke-width="0.5" points="344.493,-41.2644 349.692,-40.2479 344.994,-37.8004 344.493,-41.2644"/>
</g>
<!-- LoggingConfigurable -->
<g id="node9" class="node"><title>LoggingConfigurable</title>
<g id="a_node9"><a xlink:title="A parent class for Configurables that log.">
<polygon fill="none" stroke="black" stroke-width="0.5" points="437.856,-18 329.265,-18 329.265,-0 437.856,-0 437.856,-18"/>
<text text-anchor="middle" x="383.561" y="-6" font-family="Vera Sans, DejaVu Sans, Liberation Sans, Arial, Helvetica, sans" font-size="10.00">LoggingConfigurable</text>
</a>
</g>
</g>
<!-- Configurable&#45;&gt;LoggingConfigurable -->
<g id="edge6" class="edge"><title>Configurable&#45;&gt;LoggingConfigurable</title>
<path fill="none" stroke="black" stroke-width="0.5" d="M293.405,-21.8901C302.919,-20.5145 313.471,-18.9889 323.89,-17.4826"/>
<polygon fill="black" stroke="black" stroke-width="0.5" points="324.29,-19.193 328.988,-16.7454 323.789,-15.729 324.29,-19.193"/>
</g>
<!-- HasTraits -->
<g id="node5" class="node"><title>HasTraits</title>
<polygon fill="none" stroke="black" stroke-width="0.5" points="171.953,-36 113.116,-36 113.116,-18 171.953,-18 171.953,-36"/>
<text text-anchor="middle" x="142.534" y="-24" font-family="Vera Sans, DejaVu Sans, Liberation Sans, Arial, Helvetica, sans" font-size="10.00">HasTraits</text>
</g>
<!-- HasTraits&#45;&gt;Configurable -->
<g id="edge3" class="edge"><title>HasTraits&#45;&gt;Configurable</title>
<path fill="none" stroke="black" stroke-width="0.5" d="M171.929,-27C185.15,-27 201.118,-27 215.574,-27"/>
<polygon fill="black" stroke="black" stroke-width="0.5" points="215.823,-28.7501 220.823,-27 215.823,-25.2501 215.823,-28.7501"/>
</g>
<!-- Container -->
<g id="node6" class="node"><title>Container</title>
<g id="a_node6"><a xlink:href="../../api/ctapipe.core.Container.html#ctapipe.core.Container" xlink:title="Generic class that can hold and accumulate data to be passed" target="_top">
<polygon fill="none" stroke="black" stroke-width="0.5" points="62.0402,-108 2.31922,-108 2.31922,-90 62.0402,-90 62.0402,-108"/>
<text text-anchor="middle" x="32.1797" y="-96" font-family="Vera Sans, DejaVu Sans, Liberation Sans, Arial, Helvetica, sans" font-size="10.00">Container</text>
</a>
</g>
</g>
<!-- HasDescriptors -->
<g id="node7" class="node"><title>HasDescriptors</title>
<g id="a_node7"><a xlink:title="The base class for all classes that have descriptors.">
<polygon fill="none" stroke="black" stroke-width="0.5" points="184.885,-72 100.184,-72 100.184,-54 184.885,-54 184.885,-72"/>
<text text-anchor="middle" x="142.534" y="-60" font-family="Vera Sans, DejaVu Sans, Liberation Sans, Arial, Helvetica, sans" font-size="10.00">HasDescriptors</text>
</a>
</g>
</g>
<!-- _NewBase -->
<g id="node8" class="node"><title>_NewBase</title>
<polygon fill="none" stroke="black" stroke-width="0.5" points="64.5401,-72 -0.180696,-72 -0.180696,-54 64.5401,-54 64.5401,-72"/>
<text text-anchor="middle" x="32.1797" y="-60" font-family="Vera Sans, DejaVu Sans, Liberation Sans, Arial, Helvetica, sans" font-size="10.00">_NewBase</text>
</g>
<!-- HasDescriptors&#45;&gt;_NewBase -->
<g id="edge9" class="edge"><title>HasDescriptors&#45;&gt;_NewBase</title>
<path fill="none" stroke="black" stroke-width="0.5" d="M100.176,-69.5792C90.1002,-69.8524 79.3964,-69.7979 69.5706,-69.4157"/>
<polygon fill="black" stroke="black" stroke-width="0.5" points="69.5947,-67.6651 64.5203,-69.186 69.4356,-71.1615 69.5947,-67.6651"/>
</g>
<!-- _NewBase&#45;&gt;HasTraits -->
<g id="edge5" class="edge"><title>_NewBase&#45;&gt;HasTraits</title>
<path fill="none" stroke="black" stroke-width="0.5" d="M60.5221,-53.9157C75.2796,-49.0126 93.591,-42.9288 109.069,-37.7863"/>
<polygon fill="black" stroke="black" stroke-width="0.5" points="110.007,-39.3187 114.201,-36.0814 108.904,-35.9972 110.007,-39.3187"/>
</g>
<!-- _NewBase&#45;&gt;HasDescriptors -->
<g id="edge4" class="edge"><title>_NewBase&#45;&gt;HasDescriptors</title>
<path fill="none" stroke="black" stroke-width="0.5" d="M64.5203,-56.814C74.0812,-56.313 84.8035,-56.1458 95.1399,-56.3123"/>
<polygon fill="black" stroke="black" stroke-width="0.5" points="95.1397,-58.0626 100.176,-56.4208 95.2152,-54.5634 95.1397,-58.0626"/>
</g>
<!-- LoggingConfigurable&#45;&gt;SingletonConfigurable -->
<g id="edge7" class="edge"><title>LoggingConfigurable&#45;&gt;SingletonConfigurable</title>
<path fill="none" stroke="black" stroke-width="0.5" d="M437.858,-9C447.884,-9 458.441,-9 468.687,-9"/>
<polygon fill="black" stroke="black" stroke-width="0.5" points="468.688,-10.7501 473.688,-9 468.688,-7.2501 468.688,-10.7501"/>
</g>
</g>
</svg>
