<?xml version="1.0" encoding="UTF-8" standalone="no"?>
<!DOCTYPE svg PUBLIC "-//W3C//DTD SVG 1.1//EN"
 "http://www.w3.org/Graphics/SVG/1.1/DTD/svg11.dtd">
<!-- Generated by graphviz version 2.38.0 (20140413.2041)
 -->
<!-- Title: inheritance94ca2a3b13 Pages: 1 -->
<svg width="364pt" height="98pt"
 viewBox="0.00 0.00 363.69 98.00" xmlns="http://www.w3.org/2000/svg" xmlns:xlink="http://www.w3.org/1999/xlink">
<g id="graph0" class="graph" transform="scale(1 1) rotate(0) translate(4 94)">
<title>inheritance94ca2a3b13</title>
<polygon fill="white" stroke="none" points="-4,4 -4,-94 359.688,-94 359.688,4 -4,4"/>
<!-- ArgumentParser -->
<g id="node1" class="node"><title>ArgumentParser</title>
<g id="a_node1"><a xlink:title="Object for parsing command line strings into Python objects.">
<polygon fill="none" stroke="black" stroke-width="0.5" points="244.11,-36 155.494,-36 155.494,-18 244.11,-18 244.11,-36"/>
<text text-anchor="middle" x="199.802" y="-24" font-family="Vera Sans, DejaVu Sans, Liberation Sans, Arial, Helvetica, sans" font-size="10.00">ArgumentParser</text>
</a>
</g>
</g>
<!-- Configuration -->
<g id="node4" class="node"><title>Configuration</title>
<g id="a_node4"><a xlink:href="../../api/ctapipe.configuration.core.Configuration.html#ctapipe.configuration.core.Configuration" xlink:title="Configuration initialization if other is not None and its type is" target="_top">
<polygon fill="none" stroke="black" stroke-width="0.5" points="355.931,-36 279.963,-36 279.963,-18 355.931,-18 355.931,-36"/>
<text text-anchor="middle" x="317.947" y="-24" font-family="Vera Sans, DejaVu Sans, Liberation Sans, Arial, Helvetica, sans" font-size="10.00">Configuration</text>
</a>
</g>
</g>
<!-- ArgumentParser&#45;&gt;Configuration -->
<g id="edge3" class="edge"><title>ArgumentParser&#45;&gt;Configuration</title>
<path fill="none" stroke="black" stroke-width="0.5" d="M244.381,-27C254.357,-27 264.943,-27 274.855,-27"/>
<polygon fill="black" stroke="black" stroke-width="0.5" points="274.97,-28.7501 279.97,-27 274.97,-25.2501 274.97,-28.7501"/>
</g>
<!-- _AttributeHolder -->
<g id="node2" class="node"><title>_AttributeHolder</title>
<g id="a_node2"><a xlink:title="Abstract base class that provides __repr__.">
<polygon fill="none" stroke="black" stroke-width="0.5" points="103.96,-54 15.4381,-54 15.4381,-36 103.96,-36 103.96,-54"/>
<text text-anchor="middle" x="59.6992" y="-42" font-family="Vera Sans, DejaVu Sans, Liberation Sans, Arial, Helvetica, sans" font-size="10.00">_AttributeHolder</text>
</a>
</g>
</g>
<!-- _AttributeHolder&#45;&gt;ArgumentParser -->
<g id="edge1" class="edge"><title>_AttributeHolder&#45;&gt;ArgumentParser</title>
<path fill="none" stroke="black" stroke-width="0.5" d="M104.017,-39.3541C118.657,-37.4459 135.099,-35.303 150.126,-33.3443"/>
<polygon fill="black" stroke="black" stroke-width="0.5" points="150.432,-35.0694 155.163,-32.6878 149.979,-31.5988 150.432,-35.0694"/>
</g>
<!-- _ActionsContainer -->
<g id="node3" class="node"><title>_ActionsContainer</title>
<polygon fill="none" stroke="black" stroke-width="0.5" points="108.414,-18 10.9849,-18 10.9849,-0 108.414,-0 108.414,-18"/>
<text text-anchor="middle" x="59.6992" y="-6" font-family="Vera Sans, DejaVu Sans, Liberation Sans, Arial, Helvetica, sans" font-size="10.00">_ActionsContainer</text>
</g>
<!-- _ActionsContainer&#45;&gt;ArgumentParser -->
<g id="edge2" class="edge"><title>_ActionsContainer&#45;&gt;ArgumentParser</title>
<path fill="none" stroke="black" stroke-width="0.5" d="M108.613,-15.245C121.956,-16.984 136.464,-18.8749 149.864,-20.6215"/>
<polygon fill="black" stroke="black" stroke-width="0.5" points="149.952,-22.3978 155.137,-21.3087 150.405,-18.9271 149.952,-22.3978"/>
</g>
<!-- ConfigurationException -->
<g id="node5" class="node"><title>ConfigurationException</title>
<g id="a_node5"><a xlink:href="../../api/ctapipe.configuration.core.ConfigurationException.html#ctapipe.configuration.core.ConfigurationException" xlink:title="ConfigurationException" target="_top">
<polygon fill="none" stroke="black" stroke-width="0.5" points="119.598,-90 -0.199886,-90 -0.199886,-72 119.598,-72 119.598,-90"/>
<text text-anchor="middle" x="59.6992" y="-78" font-family="Vera Sans, DejaVu Sans, Liberation Sans, Arial, Helvetica, sans" font-size="10.00">ConfigurationException</text>
</a>
</g>
</g>
</g>
</svg>
