<?xml version="1.0" encoding="UTF-8" standalone="no"?>
<!DOCTYPE svg PUBLIC "-//W3C//DTD SVG 1.1//EN"
 "http://www.w3.org/Graphics/SVG/1.1/DTD/svg11.dtd">
<!-- Generated by graphviz version 2.38.0 (20140413.2041)
 -->
<!-- Title: inheritance59eab2468f Pages: 1 -->
<svg width="576pt" height="60pt"
 viewBox="0.00 0.00 576.00 60.24" xmlns="http://www.w3.org/2000/svg" xmlns:xlink="http://www.w3.org/1999/xlink">
<g id="graph0" class="graph" transform="scale(0.734694 0.734694) rotate(0) translate(4 78)">
<title>inheritance59eab2468f</title>
<polygon fill="white" stroke="none" points="-4,4 -4,-78 780,-78 780,4 -4,4"/>
<!-- Application -->
<g id="node1" class="node"><title>Application</title>
<g id="a_node1"><a xlink:title="A singleton application with full configuration support.">
<polygon fill="none" stroke="black" stroke-width="0.5" points="686,-19 621,-19 621,-0 686,-0 686,-19"/>
<text text-anchor="middle" x="653.5" y="-7" font-family="Vera Sans, DejaVu Sans, Liberation Sans, Arial, Helvetica, sans" font-size="10.00">Application</text>
</a>
</g>
</g>
<!-- Tool -->
<g id="node9" class="node"><title>Tool</title>
<g id="a_node9"><a xlink:href="../../api/ctapipe.core.Tool.html#ctapipe.core.Tool" xlink:title="A base class for all executable tools (applications) that handles" target="_top">
<polygon fill="none" stroke="black" stroke-width="0.5" points="776,-19 722,-19 722,-0 776,-0 776,-19"/>
<text text-anchor="middle" x="749" y="-7" font-family="Vera Sans, DejaVu Sans, Liberation Sans, Arial, Helvetica, sans" font-size="10.00">Tool</text>
</a>
</g>
</g>
<!-- Application&#45;&gt;Tool -->
<g id="edge7" class="edge"><title>Application&#45;&gt;Tool</title>
<path fill="none" stroke="black" stroke-width="0.5" d="M686.155,-9.5C696.08,-9.5 707.022,-9.5 716.908,-9.5"/>
<polygon fill="black" stroke="black" stroke-width="0.5" points="716.971,-11.2501 721.971,-9.5 716.971,-7.7501 716.971,-11.2501"/>
</g>
<!-- SingletonConfigurable -->
<g id="node2" class="node"><title>SingletonConfigurable</title>
<g id="a_node2"><a xlink:title="A configurable that only allows one instance.">
<polygon fill="none" stroke="black" stroke-width="0.5" points="585,-19 470,-19 470,-0 585,-0 585,-19"/>
<text text-anchor="middle" x="527.5" y="-7" font-family="Vera Sans, DejaVu Sans, Liberation Sans, Arial, Helvetica, sans" font-size="10.00">SingletonConfigurable</text>
</a>
</g>
</g>
<!-- SingletonConfigurable&#45;&gt;Application -->
<g id="edge1" class="edge"><title>SingletonConfigurable&#45;&gt;Application</title>
<path fill="none" stroke="black" stroke-width="0.5" d="M585.057,-9.5C595.405,-9.5 605.956,-9.5 615.546,-9.5"/>
<polygon fill="black" stroke="black" stroke-width="0.5" points="615.768,-11.2501 620.768,-9.5 615.768,-7.7501 615.768,-11.2501"/>
</g>
<!-- Component -->
<g id="node3" class="node"><title>Component</title>
<g id="a_node3"><a xlink:href="../../api/ctapipe.core.Component.html#ctapipe.core.Component" xlink:title="Base class of all Components (sometimes called" target="_top">
<polygon fill="none" stroke="black" stroke-width="0.5" points="413.5,-56 345.5,-56 345.5,-37 413.5,-37 413.5,-56"/>
<text text-anchor="middle" x="379.5" y="-44" font-family="Vera Sans, DejaVu Sans, Liberation Sans, Arial, Helvetica, sans" font-size="10.00">Component</text>
</a>
</g>
</g>
<!-- Configurable -->
<g id="node4" class="node"><title>Configurable</title>
<polygon fill="none" stroke="black" stroke-width="0.5" points="289,-37 216,-37 216,-18 289,-18 289,-37"/>
<text text-anchor="middle" x="252.5" y="-25" font-family="Vera Sans, DejaVu Sans, Liberation Sans, Arial, Helvetica, sans" font-size="10.00">Configurable</text>
</g>
<!-- Configurable&#45;&gt;Component -->
<g id="edge2" class="edge"><title>Configurable&#45;&gt;Component</title>
<path fill="none" stroke="black" stroke-width="0.5" d="M289.32,-32.9446C305.273,-35.3694 324.08,-38.2282 340.301,-40.6937"/>
<polygon fill="black" stroke="black" stroke-width="0.5" points="340.04,-42.4241 345.246,-41.4454 340.566,-38.9638 340.04,-42.4241"/>
</g>
<!-- LoggingConfigurable -->
<g id="node8" class="node"><title>LoggingConfigurable</title>
<g id="a_node8"><a xlink:title="A parent class for Configurables that log.">
<polygon fill="none" stroke="black" stroke-width="0.5" points="434,-19 325,-19 325,-0 434,-0 434,-19"/>
<text text-anchor="middle" x="379.5" y="-7" font-family="Vera Sans, DejaVu Sans, Liberation Sans, Arial, Helvetica, sans" font-size="10.00">LoggingConfigurable</text>
</a>
</g>
</g>
<!-- Configurable&#45;&gt;LoggingConfigurable -->
<g id="edge5" class="edge"><title>Configurable&#45;&gt;LoggingConfigurable</title>
<path fill="none" stroke="black" stroke-width="0.5" d="M289.32,-22.3419C298.868,-20.9671 309.438,-19.4449 319.864,-17.9435"/>
<polygon fill="black" stroke="black" stroke-width="0.5" points="320.267,-19.6538 324.966,-17.2089 319.768,-16.1895 320.267,-19.6538"/>
</g>
<!-- HasTraits -->
<g id="node5" class="node"><title>HasTraits</title>
<polygon fill="none" stroke="black" stroke-width="0.5" points="180,-37 121,-37 121,-18 180,-18 180,-37"/>
<text text-anchor="middle" x="150.5" y="-25" font-family="Vera Sans, DejaVu Sans, Liberation Sans, Arial, Helvetica, sans" font-size="10.00">HasTraits</text>
</g>
<!-- HasTraits&#45;&gt;Configurable -->
<g id="edge3" class="edge"><title>HasTraits&#45;&gt;Configurable</title>
<path fill="none" stroke="black" stroke-width="0.5" d="M180.156,-27.5C189.592,-27.5 200.277,-27.5 210.451,-27.5"/>
<polygon fill="black" stroke="black" stroke-width="0.5" points="210.715,-29.2501 215.715,-27.5 210.715,-25.7501 210.715,-29.2501"/>
</g>
<!-- Container -->
<g id="node6" class="node"><title>Container</title>
<g id="a_node6"><a xlink:href="../../api/ctapipe.core.Container.html#ctapipe.core.Container" xlink:title="Generic class that can hold and accumulate data to be passed" target="_top">
<polygon fill="none" stroke="black" stroke-width="0.5" points="72.5,-74 12.5,-74 12.5,-55 72.5,-55 72.5,-74"/>
<text text-anchor="middle" x="42.5" y="-62" font-family="Vera Sans, DejaVu Sans, Liberation Sans, Arial, Helvetica, sans" font-size="10.00">Container</text>
</a>
</g>
</g>
<!-- HasDescriptors -->
<g id="node7" class="node"><title>HasDescriptors</title>
<g id="a_node7"><a xlink:title="The base class for all classes that have descriptors.">
<polygon fill="none" stroke="black" stroke-width="0.5" points="85,-37 0,-37 0,-18 85,-18 85,-37"/>
<text text-anchor="middle" x="42.5" y="-25" font-family="Vera Sans, DejaVu Sans, Liberation Sans, Arial, Helvetica, sans" font-size="10.00">HasDescriptors</text>
</a>
</g>
</g>
<!-- HasDescriptors&#45;&gt;HasTraits -->
<g id="edge4" class="edge"><title>HasDescriptors&#45;&gt;HasTraits</title>
<path fill="none" stroke="black" stroke-width="0.5" d="M85.0898,-27.5C95.2644,-27.5 106.028,-27.5 115.783,-27.5"/>
<polygon fill="black" stroke="black" stroke-width="0.5" points="115.783,-29.2501 120.783,-27.5 115.783,-25.7501 115.783,-29.2501"/>
</g>
<!-- LoggingConfigurable&#45;&gt;SingletonConfigurable -->
<g id="edge6" class="edge"><title>LoggingConfigurable&#45;&gt;SingletonConfigurable</title>
<path fill="none" stroke="black" stroke-width="0.5" d="M434.036,-9.5C443.877,-9.5 454.227,-9.5 464.297,-9.5"/>
<polygon fill="black" stroke="black" stroke-width="0.5" points="464.533,-11.2501 469.533,-9.5 464.533,-7.7501 464.533,-11.2501"/>
</g>
</g>
</svg>
