<?xml version="1.0" encoding="UTF-8" standalone="no"?>
<!DOCTYPE svg PUBLIC "-//W3C//DTD SVG 1.1//EN"
 "http://www.w3.org/Graphics/SVG/1.1/DTD/svg11.dtd">
<!-- Generated by graphviz version 2.38.0 (20140413.2041)
 -->
<!-- Title: inheritanced7aba0998e Pages: 1 -->
<svg width="349pt" height="278pt"
 viewBox="0.00 0.00 349.41 278.00" xmlns="http://www.w3.org/2000/svg" xmlns:xlink="http://www.w3.org/1999/xlink">
<g id="graph0" class="graph" transform="scale(1 1) rotate(0) translate(4 274)">
<title>inheritanced7aba0998e</title>
<polygon fill="white" stroke="none" points="-4,4 -4,-274 345.411,-274 345.411,4 -4,4"/>
<!-- ArrayConfig -->
<g id="node1" class="node"><title>ArrayConfig</title>
<g id="a_node1"><a xlink:href="../../api/ctapipe.instrument.obsconfig.ArrayConfig.html#ctapipe.instrument.obsconfig.ArrayConfig" xlink:title="Overall description of an array (including all telescope that are" target="_top">
<polygon fill="none" stroke="black" stroke-width="0.5" points="198.619,-270 130.023,-270 130.023,-252 198.619,-252 198.619,-270"/>
<text text-anchor="middle" x="164.321" y="-258" font-family="Vera Sans, DejaVu Sans, Liberation Sans, Arial, Helvetica, sans" font-size="10.00">ArrayConfig</text>
</a>
</g>
</g>
<!-- BaseConfig -->
<g id="node2" class="node"><title>BaseConfig</title>
<g id="a_node2"><a xlink:href="../../api/ctapipe.instrument.obsconfig.BaseConfig.html#ctapipe.instrument.obsconfig.BaseConfig" xlink:title="BaseConfig" target="_top">
<polygon fill="none" stroke="black" stroke-width="0.5" points="67.5495,-144 0.149725,-144 0.149725,-126 67.5495,-126 67.5495,-144"/>
<text text-anchor="middle" x="33.8496" y="-132" font-family="Vera Sans, DejaVu Sans, Liberation Sans, Arial, Helvetica, sans" font-size="10.00">BaseConfig</text>
</a>
</g>
</g>
<!-- BaseConfig&#45;&gt;ArrayConfig -->
<g id="edge1" class="edge"><title>BaseConfig&#45;&gt;ArrayConfig</title>
<path fill="none" stroke="black" stroke-width="0.5" d="M38.0844,-144.076C45.9465,-164.826 68.071,-216.015 103.699,-243 109.862,-247.668 117.233,-251.132 124.657,-253.702"/>
<polygon fill="black" stroke="black" stroke-width="0.5" points="124.495,-255.487 129.791,-255.341 125.56,-252.153 124.495,-255.487"/>
</g>
<!-- ArrayTriggerConfig -->
<g id="node3" class="node"><title>ArrayTriggerConfig</title>
<g id="a_node3"><a xlink:href="../../api/ctapipe.instrument.obsconfig.ArrayTriggerConfig.html#ctapipe.instrument.obsconfig.ArrayTriggerConfig" xlink:title="Contains trigger info for a given run_type" target="_top">
<polygon fill="none" stroke="black" stroke-width="0.5" points="214.428,-234 114.215,-234 114.215,-216 214.428,-216 214.428,-234"/>
<text text-anchor="middle" x="164.321" y="-222" font-family="Vera Sans, DejaVu Sans, Liberation Sans, Arial, Helvetica, sans" font-size="10.00">ArrayTriggerConfig</text>
</a>
</g>
</g>
<!-- BaseConfig&#45;&gt;ArrayTriggerConfig -->
<g id="edge2" class="edge"><title>BaseConfig&#45;&gt;ArrayTriggerConfig</title>
<path fill="none" stroke="black" stroke-width="0.5" d="M41.328,-144.431C52.3604,-159.789 76.2823,-190.172 103.699,-207 108.215,-209.771 113.186,-212.141 118.273,-214.162"/>
<polygon fill="black" stroke="black" stroke-width="0.5" points="117.671,-215.805 122.968,-215.921 118.899,-212.528 117.671,-215.805"/>
</g>
<!-- CameraConfig -->
<g id="node4" class="node"><title>CameraConfig</title>
<g id="a_node4"><a xlink:href="../../api/ctapipe.instrument.obsconfig.CameraConfig.html#ctapipe.instrument.obsconfig.CameraConfig" xlink:title="Definition of a Camera, including its pixel geometry and other" target="_top">
<polygon fill="none" stroke="black" stroke-width="0.5" points="204.795,-198 123.847,-198 123.847,-180 204.795,-180 204.795,-198"/>
<text text-anchor="middle" x="164.321" y="-186" font-family="Vera Sans, DejaVu Sans, Liberation Sans, Arial, Helvetica, sans" font-size="10.00">CameraConfig</text>
</a>
</g>
</g>
<!-- BaseConfig&#45;&gt;CameraConfig -->
<g id="edge3" class="edge"><title>BaseConfig&#45;&gt;CameraConfig</title>
<path fill="none" stroke="black" stroke-width="0.5" d="M50.038,-144.007C63.7312,-151.866 84.592,-163.202 103.699,-171 110.288,-173.689 117.429,-176.185 124.403,-178.409"/>
<polygon fill="black" stroke="black" stroke-width="0.5" points="123.902,-180.086 129.197,-179.905 124.945,-176.745 123.902,-180.086"/>
</g>
<!-- ObsConfig -->
<g id="node5" class="node"><title>ObsConfig</title>
<g id="a_node5"><a xlink:href="../../api/ctapipe.instrument.obsconfig.ObsConfig.html#ctapipe.instrument.obsconfig.ObsConfig" xlink:title="All configuration information related to an observation run." target="_top">
<polygon fill="none" stroke="black" stroke-width="0.5" points="196.068,-162 132.575,-162 132.575,-144 196.068,-144 196.068,-162"/>
<text text-anchor="middle" x="164.321" y="-150" font-family="Vera Sans, DejaVu Sans, Liberation Sans, Arial, Helvetica, sans" font-size="10.00">ObsConfig</text>
</a>
</g>
</g>
<!-- BaseConfig&#45;&gt;ObsConfig -->
<g id="edge4" class="edge"><title>BaseConfig&#45;&gt;ObsConfig</title>
<path fill="none" stroke="black" stroke-width="0.5" d="M67.6008,-139.589C85.8122,-142.14 108.509,-145.32 127.231,-147.943"/>
<polygon fill="black" stroke="black" stroke-width="0.5" points="127.204,-149.707 132.398,-148.667 127.69,-146.241 127.204,-149.707"/>
</g>
<!-- OpticsConfig -->
<g id="node6" class="node"><title>OpticsConfig</title>
<g id="a_node6"><a xlink:href="../../api/ctapipe.instrument.obsconfig.OpticsConfig.html#ctapipe.instrument.obsconfig.OpticsConfig" xlink:title="Definition of Telescope Optics, including information on the" target="_top">
<polygon fill="none" stroke="black" stroke-width="0.5" points="201.068,-126 127.575,-126 127.575,-108 201.068,-108 201.068,-126"/>
<text text-anchor="middle" x="164.321" y="-114" font-family="Vera Sans, DejaVu Sans, Liberation Sans, Arial, Helvetica, sans" font-size="10.00">OpticsConfig</text>
</a>
</g>
</g>
<!-- BaseConfig&#45;&gt;OpticsConfig -->
<g id="edge5" class="edge"><title>BaseConfig&#45;&gt;OpticsConfig</title>
<path fill="none" stroke="black" stroke-width="0.5" d="M67.6008,-130.411C84.1744,-128.089 104.463,-125.247 122.089,-122.777"/>
<polygon fill="black" stroke="black" stroke-width="0.5" points="122.758,-124.45 127.467,-122.024 122.272,-120.984 122.758,-124.45"/>
</g>
<!-- SubarrayConfig -->
<g id="node8" class="node"><title>SubarrayConfig</title>
<g id="a_node8"><a xlink:href="../../api/ctapipe.instrument.obsconfig.SubarrayConfig.html#ctapipe.instrument.obsconfig.SubarrayConfig" xlink:title="Description of a particular Subarray used during an observation or" target="_top">
<polygon fill="none" stroke="black" stroke-width="0.5" points="207.305,-90 121.337,-90 121.337,-72 207.305,-72 207.305,-90"/>
<text text-anchor="middle" x="164.321" y="-78" font-family="Vera Sans, DejaVu Sans, Liberation Sans, Arial, Helvetica, sans" font-size="10.00">SubarrayConfig</text>
</a>
</g>
</g>
<!-- BaseConfig&#45;&gt;SubarrayConfig -->
<g id="edge7" class="edge"><title>BaseConfig&#45;&gt;SubarrayConfig</title>
<path fill="none" stroke="black" stroke-width="0.5" d="M50.038,-125.993C63.7312,-118.134 84.592,-106.798 103.699,-99 110.288,-96.3111 117.429,-93.8151 124.403,-91.5905"/>
<polygon fill="black" stroke="black" stroke-width="0.5" points="124.945,-93.2549 129.197,-90.0948 123.902,-89.9138 124.945,-93.2549"/>
</g>
<!-- TelescopeConfig -->
<g id="node9" class="node"><title>TelescopeConfig</title>
<g id="a_node9"><a xlink:href="../../api/ctapipe.instrument.obsconfig.TelescopeConfig.html#ctapipe.instrument.obsconfig.TelescopeConfig" xlink:title="Configuration of a single Telescope, including it&#39;s optics and" target="_top">
<polygon fill="none" stroke="black" stroke-width="0.5" points="209.257,-54 119.386,-54 119.386,-36 209.257,-36 209.257,-54"/>
<text text-anchor="middle" x="164.321" y="-42" font-family="Vera Sans, DejaVu Sans, Liberation Sans, Arial, Helvetica, sans" font-size="10.00">TelescopeConfig</text>
</a>
</g>
</g>
<!-- BaseConfig&#45;&gt;TelescopeConfig -->
<g id="edge8" class="edge"><title>BaseConfig&#45;&gt;TelescopeConfig</title>
<path fill="none" stroke="black" stroke-width="0.5" d="M41.328,-125.569C52.3604,-110.211 76.2823,-79.8276 103.699,-63 108.215,-60.2286 113.186,-57.8586 118.273,-55.838"/>
<polygon fill="black" stroke="black" stroke-width="0.5" points="118.899,-57.4721 122.968,-54.079 117.671,-54.1946 118.899,-57.4721"/>
</g>
<!-- TelescopeTriggerConfig -->
<g id="node10" class="node"><title>TelescopeTriggerConfig</title>
<g id="a_node10"><a xlink:href="../../api/ctapipe.instrument.obsconfig.TelescopeTriggerConfig.html#ctapipe.instrument.obsconfig.TelescopeTriggerConfig" xlink:title="Contains trigger info for a given run_type" target="_top">
<polygon fill="none" stroke="black" stroke-width="0.5" points="225.066,-18 103.577,-18 103.577,-0 225.066,-0 225.066,-18"/>
<text text-anchor="middle" x="164.321" y="-6" font-family="Vera Sans, DejaVu Sans, Liberation Sans, Arial, Helvetica, sans" font-size="10.00">TelescopeTriggerConfig</text>
</a>
</g>
</g>
<!-- BaseConfig&#45;&gt;TelescopeTriggerConfig -->
<g id="edge9" class="edge"><title>BaseConfig&#45;&gt;TelescopeTriggerConfig</title>
<path fill="none" stroke="black" stroke-width="0.5" d="M38.0844,-125.924C45.9465,-105.174 68.071,-53.9854 103.699,-27 107.168,-24.3723 111.021,-22.126 115.05,-20.206"/>
<polygon fill="black" stroke="black" stroke-width="0.5" points="115.974,-21.7116 119.848,-18.0988 114.566,-18.5069 115.974,-21.7116"/>
</g>
<!-- SimObsConfig -->
<g id="node7" class="node"><title>SimObsConfig</title>
<g id="a_node7"><a xlink:href="../../api/ctapipe.instrument.obsconfig.SimObsConfig.html#ctapipe.instrument.obsconfig.SimObsConfig" xlink:title="ObsConfig from a simulation run." target="_top">
<polygon fill="none" stroke="black" stroke-width="0.5" points="341.646,-162 260.708,-162 260.708,-144 341.646,-144 341.646,-162"/>
<text text-anchor="middle" x="301.177" y="-150" font-family="Vera Sans, DejaVu Sans, Liberation Sans, Arial, Helvetica, sans" font-size="10.00">SimObsConfig</text>
</a>
</g>
</g>
<!-- ObsConfig&#45;&gt;SimObsConfig -->
<g id="edge6" class="edge"><title>ObsConfig&#45;&gt;SimObsConfig</title>
<path fill="none" stroke="black" stroke-width="0.5" d="M196.26,-153C213.817,-153 236.096,-153 255.519,-153"/>
<polygon fill="black" stroke="black" stroke-width="0.5" points="255.916,-154.75 260.916,-153 255.916,-151.25 255.916,-154.75"/>
</g>
</g>
</svg>
